<svg width="270" height="75" viewBox="0 0 270 75" fill="none" xmlns="http://www.w3.org/2000/svg">
  <mask id="mask0" style="mask-type:alpha" maskUnits="userSpaceOnUse" x="0" y="0" width="270" height="75">
    <path d="M0 20C0 8.9543 8.95431 0 20 0H250C261.046 0 270 8.95431 270 20V75H0V20Z" fill="#E6EDFE"/>
  </mask>
  <g mask="url(#mask0)">
    <rect width="270" height="95" fill="#FFBAC6"/>
    <path opacity="0.3" d="M155.893 41.7243C157.234 39.413 163.664 27.8723 162.439 12.7385C162.041 7.95909 160.957 3.3903 159.26 -0.664742M45.947 45.2838C45.6928 45.8029 41.78 53.5623 35.2503 53.1835C29.4028 52.8356 26.2691 46.2547 25.9075 45.47" stroke="#F1F5FD" stroke-width="2" stroke-linecap="round" stroke-linejoin="round" stroke-dasharray="9 9"/>
    <ellipse opacity="0.15" cx="270" cy="142" rx="96.1017" ry="105" fill="white"/>
    <ellipse opacity="0.15" cx="-60.4069" cy="57" rx="96.1017" ry="105" fill="white"/>
    <path opacity="0.15" d="M0 0L212.797 -34C212.797 -34 135.915 10.5 107.085 15C78.2542 19.5 60.4068 12.5 48.5085 38.5C36.6102 64.5 0 44 0 44V0Z" fill="white"/>
    <path opacity="0.3" d="M165.078 59C164.319 55.9215 164.809 56.6545 162.753 55.4817C164.809 54.3455 164.319 55.0785 165.078 52C165.837 55.0785 165.347 54.3455 167.403 55.4817C165.372 56.6545 165.861 55.9215 165.078 59Z" fill="#F1F5FD"/>
    <path opacity="0.3" d="M27.9005 38.7198L27.9236 34.5783C27.9242 34.4238 27.971 34.2759 28.0535 34.1675C28.1361 34.059 28.2477 33.9987 28.3637 34L30.7878 34.0243C30.9038 34.0252 31.0148 34.0875 31.0962 34.1975C31.1776 34.3075 31.2228 34.4561 31.2219 34.6106L31.1988 38.7522C31.1978 38.8513 31.1532 38.9403 31.0849 38.9795C31.0166 39.0187 30.9374 39.0007 30.8827 38.9336L29.684 37.437C29.6122 37.3487 29.5016 37.3487 29.4299 37.437L28.2141 38.9109C28.1587 38.9787 28.0782 38.9956 28.0097 38.9539C27.9413 38.9122 27.8983 38.82 27.9005 38.7198Z" fill="#F1F5FD"/>
    <path opacity="0.3" d="M152.329 16.3848H150.697L149.882 18.4237L150.697 20.4627H152.329L153.147 18.4237L152.329 16.3848Z" fill="#F1F5FD"/>
  </g>
</svg>
