<svg width="26" height="26" viewBox="0 0 26 26" fill="none" xmlns="http://www.w3.org/2000/svg">
    <circle cx="13" cy="13" r="13" fill="#FFEDF0"/>
    <mask id="path-2-outside-1" maskUnits="userSpaceOnUse" x="6.98286" y="4.98284" width="12.2748" height="16.2051" fill="black">
        <rect fill="white" x="6.98286" y="4.98284" width="12.2748" height="16.2051"/>
        <path d="M17.822 10.3035L17.1651 9.53398C17.0748 9.42833 17.0189 9.2996 17.0033 9.1617L16.8889 8.15633C16.8294 7.63396 16.4058 7.22479 15.8817 7.18344L14.873 7.10392C14.7346 7.09303 14.6041 7.04152 14.4953 6.95512L13.7035 6.32503C13.2922 5.99775 12.7034 6.00793 12.3035 6.34924L11.534 7.00632C11.4285 7.09643 11.2997 7.15241 11.1617 7.16808L10.1563 7.28243C9.63398 7.34187 9.22491 7.76544 9.18345 8.28955L9.10393 9.29828C9.09304 9.43664 9.04154 9.56723 8.95514 9.67593L8.32505 10.4677C7.99777 10.8791 8.00795 11.4679 8.34925 11.8677L9.00634 12.6373C9.09645 12.7429 9.15243 12.8717 9.1681 13.0096L9.28244 14.0149C9.34189 14.5373 9.76546 14.9464 10.2896 14.9878L10.9062 15.0365L9.50405 18.5566C9.46607 18.6524 9.4858 18.7592 9.55562 18.8352C9.62544 18.9111 9.73001 18.9398 9.82844 18.9099L11.0911 18.5298C11.0966 18.5281 11.102 18.5304 11.1046 18.5349L11.76 19.6793C11.8088 19.7646 11.898 19.8149 11.9953 19.8132C11.9999 19.8131 12.0045 19.8129 12.0092 19.8127C12.1119 19.8057 12.1997 19.742 12.2387 19.6455L13.719 15.9288C13.7708 15.8978 13.8206 15.8623 13.8679 15.822L14.6374 15.165C14.7348 15.0818 14.8522 15.0282 14.9781 15.008L16.4344 18.3256L15.4399 18.0633C15.2507 18.0135 15.0551 18.0994 14.9636 18.2723L14.4836 19.1818L13.8 17.6242C13.7548 17.5213 13.6349 17.4747 13.5321 17.5198C13.4293 17.5648 13.3825 17.6848 13.4277 17.7875L14.2285 19.6122C14.2704 19.7062 14.3603 19.7668 14.4633 19.7702C14.468 19.7704 14.4726 19.7705 14.4772 19.7704C14.5744 19.7687 14.6619 19.7152 14.7077 19.6284L15.323 18.4622C15.3256 18.4574 15.331 18.4551 15.3363 18.4564L16.6112 18.7927C16.7108 18.819 16.8144 18.7868 16.8815 18.7085C16.9486 18.6302 16.9646 18.5229 16.9233 18.4281L15.4004 14.9587L16.0149 14.8887C16.5373 14.8293 16.9465 14.4058 16.9878 13.8817L17.0675 12.8729C17.0783 12.7345 17.1298 12.604 17.2163 12.4953L17.8462 11.7035C18.1736 11.2921 18.1634 10.7034 17.822 10.3035ZM11.9685 19.2253L11.4573 18.3327C11.36 18.1632 11.1612 18.0841 10.9741 18.1405L9.98929 18.4369L11.3299 15.0711C11.4566 15.0869 11.5757 15.1364 11.6759 15.2161L12.4677 15.8462C12.6735 16.0099 12.9235 16.0892 13.1721 16.0849C13.1881 16.0846 13.204 16.0839 13.22 16.0829L11.9685 19.2253ZM17.5282 11.4505L16.8982 12.2423C16.761 12.4145 16.6795 12.6215 16.6621 12.841L16.5826 13.8497C16.5565 14.1803 16.2985 14.4474 15.9691 14.4848L15.0859 14.5854C15.0825 14.5856 15.0789 14.586 15.0755 14.5866L14.9637 14.5993C14.7449 14.6242 14.5408 14.7129 14.3734 14.8558L13.6038 15.5128C13.3517 15.7281 12.9803 15.7346 12.7209 15.5281L11.9291 14.8981C11.7569 14.761 11.5498 14.6793 11.3303 14.6621L11.2176 14.6532C11.2145 14.6528 11.2114 14.6527 11.2083 14.6525L10.3216 14.5825C9.99102 14.5564 9.72392 14.2984 9.68643 13.9689L9.57209 12.9637C9.54718 12.7449 9.45851 12.5408 9.31546 12.3734L8.65848 11.6038C8.44315 11.3516 8.43673 10.9802 8.64321 10.7208L9.2732 9.92899C9.41038 9.75676 9.49194 9.54971 9.50927 9.33018L9.58879 8.32145C9.61487 7.9909 9.87289 7.7238 10.2023 7.68631L11.2077 7.57197C11.4265 7.54706 11.6306 7.45839 11.798 7.31544L12.5676 6.65846C12.6936 6.55085 12.8495 6.49533 13.0063 6.49262C13.163 6.48991 13.3208 6.5399 13.4505 6.64319L14.2423 7.27318C14.4145 7.41025 14.6216 7.49192 14.8411 7.50915L15.8498 7.58867C16.1804 7.61475 16.4475 7.87277 16.485 8.20222L16.5993 9.2076C16.6242 9.4264 16.7129 9.6305 16.8559 9.79789L17.5129 10.5674C17.7281 10.8197 17.7346 11.191 17.5282 11.4505Z"/>
    </mask>
    <path d="M17.822 10.3035L17.1651 9.53398C17.0748 9.42833 17.0189 9.2996 17.0033 9.1617L16.8889 8.15633C16.8294 7.63396 16.4058 7.22479 15.8817 7.18344L14.873 7.10392C14.7346 7.09303 14.6041 7.04152 14.4953 6.95512L13.7035 6.32503C13.2922 5.99775 12.7034 6.00793 12.3035 6.34924L11.534 7.00632C11.4285 7.09643 11.2997 7.15241 11.1617 7.16808L10.1563 7.28243C9.63398 7.34187 9.22491 7.76544 9.18345 8.28955L9.10393 9.29828C9.09304 9.43664 9.04154 9.56723 8.95514 9.67593L8.32505 10.4677C7.99777 10.8791 8.00795 11.4679 8.34925 11.8677L9.00634 12.6373C9.09645 12.7429 9.15243 12.8717 9.1681 13.0096L9.28244 14.0149C9.34189 14.5373 9.76546 14.9464 10.2896 14.9878L10.9062 15.0365L9.50405 18.5566C9.46607 18.6524 9.4858 18.7592 9.55562 18.8352C9.62544 18.9111 9.73001 18.9398 9.82844 18.9099L11.0911 18.5298C11.0966 18.5281 11.102 18.5304 11.1046 18.5349L11.76 19.6793C11.8088 19.7646 11.898 19.8149 11.9953 19.8132C11.9999 19.8131 12.0045 19.8129 12.0092 19.8127C12.1119 19.8057 12.1997 19.742 12.2387 19.6455L13.719 15.9288C13.7708 15.8978 13.8206 15.8623 13.8679 15.822L14.6374 15.165C14.7348 15.0818 14.8522 15.0282 14.9781 15.008L16.4344 18.3256L15.4399 18.0633C15.2507 18.0135 15.0551 18.0994 14.9636 18.2723L14.4836 19.1818L13.8 17.6242C13.7548 17.5213 13.6349 17.4747 13.5321 17.5198C13.4293 17.5648 13.3825 17.6848 13.4277 17.7875L14.2285 19.6122C14.2704 19.7062 14.3603 19.7668 14.4633 19.7702C14.468 19.7704 14.4726 19.7705 14.4772 19.7704C14.5744 19.7687 14.6619 19.7152 14.7077 19.6284L15.323 18.4622C15.3256 18.4574 15.331 18.4551 15.3363 18.4564L16.6112 18.7927C16.7108 18.819 16.8144 18.7868 16.8815 18.7085C16.9486 18.6302 16.9646 18.5229 16.9233 18.4281L15.4004 14.9587L16.0149 14.8887C16.5373 14.8293 16.9465 14.4058 16.9878 13.8817L17.0675 12.8729C17.0783 12.7345 17.1298 12.604 17.2163 12.4953L17.8462 11.7035C18.1736 11.2921 18.1634 10.7034 17.822 10.3035ZM11.9685 19.2253L11.4573 18.3327C11.36 18.1632 11.1612 18.0841 10.9741 18.1405L9.98929 18.4369L11.3299 15.0711C11.4566 15.0869 11.5757 15.1364 11.6759 15.2161L12.4677 15.8462C12.6735 16.0099 12.9235 16.0892 13.1721 16.0849C13.1881 16.0846 13.204 16.0839 13.22 16.0829L11.9685 19.2253ZM17.5282 11.4505L16.8982 12.2423C16.761 12.4145 16.6795 12.6215 16.6621 12.841L16.5826 13.8497C16.5565 14.1803 16.2985 14.4474 15.9691 14.4848L15.0859 14.5854C15.0825 14.5856 15.0789 14.586 15.0755 14.5866L14.9637 14.5993C14.7449 14.6242 14.5408 14.7129 14.3734 14.8558L13.6038 15.5128C13.3517 15.7281 12.9803 15.7346 12.7209 15.5281L11.9291 14.8981C11.7569 14.761 11.5498 14.6793 11.3303 14.6621L11.2176 14.6532C11.2145 14.6528 11.2114 14.6527 11.2083 14.6525L10.3216 14.5825C9.99102 14.5564 9.72392 14.2984 9.68643 13.9689L9.57209 12.9637C9.54718 12.7449 9.45851 12.5408 9.31546 12.3734L8.65848 11.6038C8.44315 11.3516 8.43673 10.9802 8.64321 10.7208L9.2732 9.92899C9.41038 9.75676 9.49194 9.54971 9.50927 9.33018L9.58879 8.32145C9.61487 7.9909 9.87289 7.7238 10.2023 7.68631L11.2077 7.57197C11.4265 7.54706 11.6306 7.45839 11.798 7.31544L12.5676 6.65846C12.6936 6.55085 12.8495 6.49533 13.0063 6.49262C13.163 6.48991 13.3208 6.5399 13.4505 6.64319L14.2423 7.27318C14.4145 7.41025 14.6216 7.49192 14.8411 7.50915L15.8498 7.58867C16.1804 7.61475 16.4475 7.87277 16.485 8.20222L16.5993 9.2076C16.6242 9.4264 16.7129 9.6305 16.8559 9.79789L17.5129 10.5674C17.7281 10.8197 17.7346 11.191 17.5282 11.4505Z" fill="#F9879A"/>
    <path d="M17.822 10.3035L17.1651 9.53398C17.0748 9.42833 17.0189 9.2996 17.0033 9.1617L16.8889 8.15633C16.8294 7.63396 16.4058 7.22479 15.8817 7.18344L14.873 7.10392C14.7346 7.09303 14.6041 7.04152 14.4953 6.95512L13.7035 6.32503C13.2922 5.99775 12.7034 6.00793 12.3035 6.34924L11.534 7.00632C11.4285 7.09643 11.2997 7.15241 11.1617 7.16808L10.1563 7.28243C9.63398 7.34187 9.22491 7.76544 9.18345 8.28955L9.10393 9.29828C9.09304 9.43664 9.04154 9.56723 8.95514 9.67593L8.32505 10.4677C7.99777 10.8791 8.00795 11.4679 8.34925 11.8677L9.00634 12.6373C9.09645 12.7429 9.15243 12.8717 9.1681 13.0096L9.28244 14.0149C9.34189 14.5373 9.76546 14.9464 10.2896 14.9878L10.9062 15.0365L9.50405 18.5566C9.46607 18.6524 9.4858 18.7592 9.55562 18.8352C9.62544 18.9111 9.73001 18.9398 9.82844 18.9099L11.0911 18.5298C11.0966 18.5281 11.102 18.5304 11.1046 18.5349L11.76 19.6793C11.8088 19.7646 11.898 19.8149 11.9953 19.8132C11.9999 19.8131 12.0045 19.8129 12.0092 19.8127C12.1119 19.8057 12.1997 19.742 12.2387 19.6455L13.719 15.9288C13.7708 15.8978 13.8206 15.8623 13.8679 15.822L14.6374 15.165C14.7348 15.0818 14.8522 15.0282 14.9781 15.008L16.4344 18.3256L15.4399 18.0633C15.2507 18.0135 15.0551 18.0994 14.9636 18.2723L14.4836 19.1818L13.8 17.6242C13.7548 17.5213 13.6349 17.4747 13.5321 17.5198C13.4293 17.5648 13.3825 17.6848 13.4277 17.7875L14.2285 19.6122C14.2704 19.7062 14.3603 19.7668 14.4633 19.7702C14.468 19.7704 14.4726 19.7705 14.4772 19.7704C14.5744 19.7687 14.6619 19.7152 14.7077 19.6284L15.323 18.4622C15.3256 18.4574 15.331 18.4551 15.3363 18.4564L16.6112 18.7927C16.7108 18.819 16.8144 18.7868 16.8815 18.7085C16.9486 18.6302 16.9646 18.5229 16.9233 18.4281L15.4004 14.9587L16.0149 14.8887C16.5373 14.8293 16.9465 14.4058 16.9878 13.8817L17.0675 12.8729C17.0783 12.7345 17.1298 12.604 17.2163 12.4953L17.8462 11.7035C18.1736 11.2921 18.1634 10.7034 17.822 10.3035ZM11.9685 19.2253L11.4573 18.3327C11.36 18.1632 11.1612 18.0841 10.9741 18.1405L9.98929 18.4369L11.3299 15.0711C11.4566 15.0869 11.5757 15.1364 11.6759 15.2161L12.4677 15.8462C12.6735 16.0099 12.9235 16.0892 13.1721 16.0849C13.1881 16.0846 13.204 16.0839 13.22 16.0829L11.9685 19.2253ZM17.5282 11.4505L16.8982 12.2423C16.761 12.4145 16.6795 12.6215 16.6621 12.841L16.5826 13.8497C16.5565 14.1803 16.2985 14.4474 15.9691 14.4848L15.0859 14.5854C15.0825 14.5856 15.0789 14.586 15.0755 14.5866L14.9637 14.5993C14.7449 14.6242 14.5408 14.7129 14.3734 14.8558L13.6038 15.5128C13.3517 15.7281 12.9803 15.7346 12.7209 15.5281L11.9291 14.8981C11.7569 14.761 11.5498 14.6793 11.3303 14.6621L11.2176 14.6532C11.2145 14.6528 11.2114 14.6527 11.2083 14.6525L10.3216 14.5825C9.99102 14.5564 9.72392 14.2984 9.68643 13.9689L9.57209 12.9637C9.54718 12.7449 9.45851 12.5408 9.31546 12.3734L8.65848 11.6038C8.44315 11.3516 8.43673 10.9802 8.64321 10.7208L9.2732 9.92899C9.41038 9.75676 9.49194 9.54971 9.50927 9.33018L9.58879 8.32145C9.61487 7.9909 9.87289 7.7238 10.2023 7.68631L11.2077 7.57197C11.4265 7.54706 11.6306 7.45839 11.798 7.31544L12.5676 6.65846C12.6936 6.55085 12.8495 6.49533 13.0063 6.49262C13.163 6.48991 13.3208 6.5399 13.4505 6.64319L14.2423 7.27318C14.4145 7.41025 14.6216 7.49192 14.8411 7.50915L15.8498 7.58867C16.1804 7.61475 16.4475 7.87277 16.485 8.20222L16.5993 9.2076C16.6242 9.4264 16.7129 9.6305 16.8559 9.79789L17.5129 10.5674C17.7281 10.8197 17.7346 11.191 17.5282 11.4505Z" stroke="#F9879A" stroke-width="0.6" mask="url(#path-2-outside-1)"/>
</svg>
