<svg width="124" height="65" viewBox="0 0 124 65" fill="none" xmlns="http://www.w3.org/2000/svg">
    <path d="M120.896 43.2208C119.581 34.1715 111.18 27.9014 102.13 29.2162C93.081 30.531 86.811 38.9328 88.1258 47.9821C89.4406 57.0314 97.8424 63.3014 106.892 61.9866C115.941 60.6718 122.211 52.2701 120.896 43.2208Z" fill="#F1F5FD"/>
    <path d="M98.9779 35.9886C98.3803 31.8753 94.5613 29.0253 90.448 29.6229C86.3347 30.2206 83.4847 34.0396 84.0823 38.1529C84.6799 42.2662 88.4989 45.1162 92.6122 44.5186C96.7256 43.9209 99.5756 40.1019 98.9779 35.9886Z" fill="#DBF8F3"/>
    <path opacity="0.32" d="M47.5707 20.016V10.0805C47.5722 9.16898 47.0827 8.32628 46.2874 7.87134L37.6236 2.90244C36.8309 2.44789 35.8544 2.44789 35.0617 2.90244L26.4002 7.87134C25.605 8.32628 25.1155 9.16898 25.117 10.0805V20.0276C25.1146 20.9399 25.6042 21.7837 26.4002 22.2391L35.064 27.2057C35.8567 27.6602 36.8333 27.6602 37.6259 27.2057L46.2897 22.2391C47.0884 21.7811 47.5777 20.932 47.5707 20.016Z" fill="#6534FF"/>
    <path d="M48.093 18.9845V9.05084C48.0945 8.13906 47.605 7.29612 46.81 6.84106L38.1479 1.86151C37.3554 1.40684 36.379 1.40684 35.5865 1.86151L26.9245 6.8318C26.1285 7.28628 25.6381 8.12932 25.6392 9.04159V18.9845C25.6381 19.8967 26.1285 20.7398 26.9245 21.1943L35.5865 26.1646C36.379 26.6192 37.3554 26.6192 38.1479 26.1646L46.81 21.1943C47.605 20.7392 48.0945 19.8963 48.093 18.9845Z" fill="#FCCDD3"/>
    <path d="M48.093 8.56629C48.0945 7.64958 47.6052 6.8021 46.8104 6.34458L38.151 1.34284C37.3588 0.885718 36.3827 0.885718 35.5904 1.34284L26.9241 6.34458C26.1284 6.80151 25.6381 7.6491 25.6392 8.56629V18.5581C25.6381 19.4753 26.1284 20.3229 26.9241 20.7798" stroke="#6535FF" stroke-linecap="round" stroke-linejoin="round"/>
    <path d="M43.9103 15.8244L44.96 14.0132L43.9103 12.2014V10.1089L42.0924 9.06264L41.0428 7.25145H38.9459L37.1286 6.2052L35.3107 7.25145H33.2114L32.1618 9.06264L30.3439 10.1089V12.2014L29.2943 14.0132L30.3439 15.8244V17.9168L32.1618 18.9631L33.2114 20.7743H35.3107L37.1286 21.8205L38.9459 20.7743H41.0428L42.0924 18.9631L43.9103 17.9168V15.8244Z" fill="white"/>
    <path d="M43.3933 9.58875L41.5754 8.54423L40.5252 6.73188H38.4254L36.6075 5.68506L34.7896 6.73188H32.6898L31.6402 8.54423L29.8223 9.58875V11.6818L28.7721 13.4942L29.8223 15.3071V17.4002L31.6402 18.447L32.6898 20.2593H34.7896" stroke="#6535FF" stroke-linecap="round" stroke-linejoin="round"/>
    <path d="M36.8663 16.615C38.4525 16.615 39.7384 15.3334 39.7384 13.7524C39.7384 12.1714 38.4525 10.8898 36.8663 10.8898C35.28 10.8898 33.9941 12.1714 33.9941 13.7524C33.9941 15.3334 35.28 16.615 36.8663 16.615Z" fill="#62BCF9"/>
    <path d="M35.5555 16.6156C34.3374 15.581 34.1655 13.7387 35.1704 12.4885C36.1753 11.2383 37.9811 11.0479 39.2159 12.0619" stroke="#6535FF" stroke-linecap="round" stroke-linejoin="round"/>
    <path opacity="0.32" d="M46.815 6.82826L38.1873 1.84254C37.8913 1.67188 37.564 1.56237 37.2248 1.52051C37.0423 1.90599 36.9098 2.31317 36.8306 2.73219C36.5685 4.15237 36.8491 5.61658 37.2503 7.00433C37.6516 8.39209 38.1781 9.74972 38.41 11.1745C38.7325 13.1288 38.5045 15.1343 37.7513 16.9665C36.7703 19.3482 34.9334 21.3499 34.2469 23.8334C34.1218 24.2885 34.0372 24.7536 33.9941 25.2235L35.6176 26.1641C36.4069 26.6194 37.3794 26.6194 38.1688 26.1641L46.7965 21.1877C47.592 20.7388 48.0865 19.8994 48.093 18.9867V9.04079C48.0944 8.12787 47.607 7.28389 46.815 6.82826Z" fill="#6534FF"/>
    <path d="M38.6937 24.9442L46.5264 20.2595" stroke="#6535FF" stroke-linecap="round" stroke-linejoin="round"/>
    <path d="M91.5227 5.11081C82.6186 9.22245 75.2628 16.0715 70.5167 24.6696C66.662 31.8057 64.7684 39.8491 65.0288 47.9802" stroke="#E6EDFE" stroke-width="2" stroke-linecap="round" stroke-linejoin="round" stroke-dasharray="9 9"/>
    <path d="M0.00012864 48.218L0.0627185 39.1075C0.068156 38.4004 0.601542 37.8315 1.25524 37.8355L7.82392 37.8854C8.13845 37.8882 8.43907 38.026 8.65962 38.2686C8.88018 38.5111 9.00259 38.8385 8.99996 39.1787L8.93737 48.2893C8.93643 48.5081 8.81536 48.7054 8.62927 48.7914C8.44317 48.8773 8.22765 48.8354 8.08087 48.6848L4.83276 45.3961C4.63839 45.2019 4.33865 45.2019 4.14427 45.3961L0.850035 48.6349C0.700194 48.7834 0.482884 48.8208 0.297794 48.7301C0.112704 48.6393 -0.00443383 48.4378 0.00012864 48.218Z" fill="#B1AFFF"/>
</svg>
