<svg width="95" height="83" viewBox="0 0 95 83" fill="none" xmlns="http://www.w3.org/2000/svg">
    <path d="M7.5 83C11.6421 83 15 79.6421 15 75.5C15 71.3579 11.6421 68 7.5 68C3.35786 68 0 71.3579 0 75.5C0 79.6421 3.35786 83 7.5 83Z" fill="#FFBAC6"/>
    <path d="M11.5 74C13.433 74 15 72.6569 15 71C15 69.3431 13.433 68 11.5 68C9.567 68 8 69.3431 8 71C8 72.6569 9.567 74 11.5 74Z" fill="#DBF8F3"/>
    <path opacity="0.32" d="M81.7697 23.4105L80.48 21.1762L80.3754 18.5933C80.3273 17.3127 79.6007 16.1545 78.4686 15.5538L76.6734 14.6057L75.659 12.8629C75.0204 11.7511 73.8354 11.0662 72.5531 11.0678H69.984L67.7008 9.85827C66.5683 9.25938 65.2024 9.30986 64.1173 9.99072L62.3987 11.0678H60.37C59.087 11.0671 57.9014 11.7516 57.2606 12.8629L55.9743 15.0867L53.7851 16.4566C52.7018 17.1363 52.0608 18.3399 52.1015 19.6181L52.1782 21.6433L51.1638 23.3861C50.5224 24.4969 50.5224 25.8655 51.1638 26.9763L52.4535 29.2106L52.5477 31.8179C52.5958 33.0986 53.3223 34.2567 54.4544 34.8574L56.2462 35.8055L57.2606 37.5483C57.9014 38.6597 59.087 39.3441 60.37 39.3434H62.5103V45.147C62.511 45.3372 62.6214 45.5098 62.7936 45.5904C62.9659 45.6709 63.1691 45.6449 63.3155 45.5235L66.3587 42.9859C66.5419 42.8312 66.81 42.8312 66.9931 42.9859L69.8725 45.4851C70.0181 45.6106 70.2236 45.6396 70.3983 45.5593C70.573 45.4791 70.6849 45.3044 70.6847 45.1122V39.3574H72.567C73.8493 39.359 75.0343 38.6741 75.673 37.5623L76.9662 35.3245L79.1553 33.9546C80.2409 33.2728 80.8801 32.0636 80.832 30.7827L80.7588 28.7575L81.7732 27.0147C82.4189 25.8997 82.4176 24.5242 81.7697 23.4105Z" fill="#6534FF"/>
    <path d="M71.2142 44.6935L68.4307 42.1144C68.2538 41.9547 67.9949 41.9547 67.8181 42.1144L64.8796 44.7331C64.7383 44.8583 64.542 44.8852 64.3757 44.8021C64.2094 44.719 64.1028 44.5408 64.1021 44.3446V37.5102C64.0966 37.3732 64.1433 37.2397 64.2314 37.1401C64.3196 37.0405 64.4417 36.9833 64.57 36.9814H71.5239C71.7847 36.9834 71.9951 37.2099 71.9951 37.4886V44.323C71.9919 44.5188 71.8827 44.6948 71.7152 44.7742C71.5477 44.8537 71.3523 44.8222 71.2142 44.6935Z" fill="#62BCF9"/>
    <path opacity="0.32" d="M68.4426 40.1285C70.8404 40.1285 72.7842 38.1911 72.7842 35.8012C72.7842 33.4114 70.8404 31.474 68.4426 31.474C66.0448 31.474 64.101 33.4114 64.101 35.8012C64.101 38.1911 66.0448 40.1285 68.4426 40.1285Z" fill="#6534FF"/>
    <path d="M83.3492 21.8442L82.0591 19.6154L81.9649 17.0388C81.9168 15.7613 81.1901 14.606 80.0577 14.0067L78.2655 13.0609L77.2509 11.3224C76.6099 10.2137 75.4239 9.53091 74.1407 9.53162H71.557L69.2767 8.28333C68.1427 7.686 66.7756 7.73635 65.6889 8.41546L63.9699 9.50033H61.9406C60.6584 9.50015 59.4738 10.183 58.8339 11.2911L57.5404 13.5199L55.3507 14.8899C54.2643 15.5695 53.6247 16.7761 53.6736 18.0541L53.7573 20.0744L52.7426 21.8129C52.1011 22.921 52.1011 24.2863 52.7426 25.3944L54.0327 27.6232L54.1059 30.2137C54.152 31.491 54.8776 32.6467 56.0097 33.2458L57.8054 34.1916L58.82 35.9302C59.4609 37.0372 60.6449 37.7197 61.9267 37.7209H64.5103L66.7941 38.924C67.9259 39.5239 69.2929 39.4749 70.3785 38.7953L72.0975 37.7209H74.1267C75.4096 37.7202 76.5949 37.0377 77.2369 35.9302L78.527 33.6978L80.7167 32.3313C81.8022 31.6506 82.4425 30.4451 82.3973 29.1671L82.3485 27.1573L83.3631 25.4187C83.9976 24.3099 83.9923 22.9481 83.3492 21.8442Z" fill="#BBC4EF"/>
    <path d="M81.4672 16.2153C81.4193 14.937 80.6855 13.781 79.5419 13.182L77.7327 12.2324L76.7085 10.4932C76.06 9.38599 74.8634 8.70453 73.5689 8.70524H70.9608L68.6589 7.49821C67.5148 6.89961 66.1347 6.94865 65.0371 7.62692L63.3019 8.70524H61.2534C59.9629 8.70218 58.7682 9.37798 58.1173 10.4793L56.8115 12.7124L54.6046 14.083C53.5066 14.7603 52.8594 15.9666 52.9081 17.2449L52.9821 19.2694L51.9578 21.0086C51.3101 22.1158 51.3101 23.4807 51.9578 24.5879L53.2601 26.835L53.3551 29.4091C53.4016 30.6868 54.1341 31.843 55.2769 32.4423L57.0896 33.3885L58.1138 35.1277C58.7597 36.2362 59.9556 36.9193 61.2499 36.9191H63.858L66.1634 38.1261C67.3095 38.7376 68.6998 38.6924 69.8028 38.0079" stroke="#6534FF" stroke-linecap="round" stroke-linejoin="round"/>
    <path opacity="0.32" d="M82.0762 19.7413L81.9834 17.1803C81.936 15.9105 81.2199 14.7622 80.1041 14.1666L78.3382 13.2266L77.3384 11.4985C76.7068 10.3966 75.5382 9.71792 74.2737 9.71863H71.7279L71.2057 9.44214C71.2871 10.5068 71.3089 11.5753 71.271 12.6425C71.2916 13.9558 71.5218 15.359 72.415 16.3163C72.8988 16.7594 73.4107 17.1703 73.9474 17.5467C75.3951 18.7735 76.1419 20.6439 75.9401 22.5373C75.7442 24.1997 74.8166 25.7307 74.7651 27.4035C74.7101 29.1661 75.6274 30.8319 75.6755 32.5876C75.7054 33.6765 75.4007 34.7483 74.8028 35.6566C74.315 36.3962 73.6416 37.0114 73.1881 37.7683H74.2737C75.5378 37.7676 76.7057 37.0893 77.3384 35.9884L78.6096 33.7696L80.7672 32.4113C81.8368 31.7347 82.4677 30.5366 82.4232 29.2663L82.3613 27.2548L83.3611 25.5268C83.9933 24.4254 83.9933 23.0684 83.3611 21.967L82.0762 19.7413Z" fill="#6534FF"/>
    <path opacity="0.32" d="M68.0488 35.4073C74.1518 35.4073 79.0993 34.7027 79.0993 33.8336C79.0993 32.9645 74.1518 32.2599 68.0488 32.2599C61.9458 32.2599 56.9983 32.9645 56.9983 33.8336C56.9983 34.7027 61.9458 35.4073 68.0488 35.4073Z" fill="#6534FF"/>
    <path d="M83.1728 24.1515C82.8517 24.4965 82.3942 24.6942 81.9135 24.6958H55.7583C55.2786 24.6941 54.8223 24.4963 54.5025 24.1515C54.1691 23.7879 53.684 23.5878 53.1811 23.6063C52.6781 23.6247 52.2103 23.8598 51.9064 24.2468L51.8147 24.3658C51.5004 24.7655 51.395 25.2827 51.529 25.7674L53.0916 31.3803C53.3645 32.3628 54.2873 33.0464 55.342 33.0471H82.3332C83.3871 33.046 84.3087 32.3623 84.5802 31.3803L86.1463 25.7674C86.2803 25.2827 86.1749 24.7655 85.8606 24.3658L85.7689 24.2468C85.4643 23.8609 84.9966 23.6267 84.4941 23.6082C83.9916 23.5898 83.5069 23.7891 83.1728 24.1515Z" fill="#62BCF9"/>
    <path d="M53.7167 24.15C53.3823 23.7867 52.8963 23.5872 52.3927 23.6063C51.8891 23.6254 51.421 23.8612 51.1173 24.2486L51.0255 24.3643C50.7113 24.7643 50.6058 25.2813 50.7394 25.7661L52.304 31.3833C52.5785 32.3647 53.5022 33.0467 54.5572 33.0471H81.582C82.637 33.0467 83.5607 32.3647 83.8352 31.3833M55.4188 24.3919H64.891M74.3631 33.0471H68.8377M64.891 34.6207H66.4696M71.9951 40.9154V43.2759M58.5762 14.163L64.1016 11.0156" stroke="#6534FF" stroke-linecap="round" stroke-linejoin="round"/>
    <path d="M12.0179 30.9942C14.0928 40.5798 19.1765 49.2501 26.5353 55.754C32.6612 61.0696 40.0996 64.6686 48.0924 66.1843" stroke="#E6EDFE" stroke-width="2" stroke-linecap="round" stroke-linejoin="round" stroke-dasharray="9 9"/>
</svg>
